<?xml version="1.0" encoding="UTF-8"?>
<!-- Generated by Pixelmator Pro 3.7 -->
<svg width="210" height="252" viewBox="0 0 210 252" xmlns="http://www.w3.org/2000/svg">
    <path id="Shape" fill="#ffffff" fill-rule="evenodd" stroke="#ffffff" stroke-width="3" stroke-linecap="round" stroke-linejoin="round" d="M 105.870331 236 C 105.507233 236 101.675385 233.470886 97.355103 230.3797 C 93.03479 227.288513 85.899994 221.727356 81.5 218.021484 C 77.100006 214.315613 68.549225 206.157288 62.498291 199.891785 C 56.447327 193.626282 48.302826 184.224976 44.399384 179 C 40.495941 173.775024 34.766663 165.169678 31.667603 159.877136 C 28.568542 154.584534 24.451416 146.559204 22.518402 142.042969 C 20.585388 137.526794 18.071289 130.38208 16.931519 126.165833 C 15.600983 121.243835 14.656006 113.882751 14.291473 105.600281 C 13.844727 95.449646 14.094635 90.974548 15.464203 84.601257 C 16.421448 80.146667 18.274628 73.659302 19.582367 70.184937 C 20.890137 66.710571 24.502258 59.967896 27.609314 55.201233 C 30.71637 50.43457 36.242432 43.550659 39.889435 39.903687 C 43.536469 36.256653 50.021942 30.986877 54.301636 28.193054 C 58.581329 25.399231 65.761444 21.694824 70.257416 19.960999 C 74.753418 18.227112 82.047272 16.097656 86.465973 15.228882 C 91.278381 14.282654 99.111481 13.694092 106 13.76123 C 114.794495 13.846924 119.839722 14.474426 127.445221 16.428528 C 132.9151 17.833984 141.107849 20.851318 145.651337 23.133789 C 150.194855 25.416321 157.531372 30.145569 161.954742 33.643311 C 166.382751 37.144653 172.925446 43.705933 176.512726 48.242554 C 180.096283 52.774475 184.806702 60.086365 186.980347 64.491211 C 189.153992 68.896057 191.960114 76.325012 193.216217 81 C 195.01947 87.711487 195.5 92.130127 195.5 102 C 195.5 110.609192 194.924438 116.990112 193.650848 122.5 C 192.63382 126.900024 190.225464 134.549988 188.29892 139.5 C 186.372375 144.450012 182.311737 153.082214 179.275299 158.682678 C 176.238861 164.283142 170.131409 173.733154 165.703217 179.682678 C 161.274994 185.632202 151.092743 197.034302 143.075958 205.02063 C 135.059174 213.006958 123.556854 223.244446 117.515228 227.77063 C 111.473602 232.296753 106.233398 236 105.870331 236 Z"/>
    <path id="path1" fill="#e0bd74" fill-rule="evenodd" stroke="none" d="M 108.136688 220.198059 C 105.512817 221.871521 105.394836 221.836914 99.987152 217.807678 C 96.969208 215.559021 93.210358 212.484131 91.634094 210.974487 C 88.768188 208.229736 88.768188 208.229736 93.672821 204.364868 C 96.370392 202.239197 103.51004 196.844055 109.538727 192.375671 C 115.567444 187.907288 121.46405 183.666748 122.642365 182.952332 C 124.537354 181.803345 125.401154 182.048584 130.124084 185.07666 C 133.06073 186.959534 136.532196 189.418091 137.838409 190.540161 C 140.213379 192.580322 140.213379 192.580322 131.356689 200.975525 C 126.485504 205.592896 119.867279 211.424805 116.649536 213.935364 C 113.431793 216.445923 109.600983 219.264099 108.136688 220.198059 Z M 82.380554 203 C 81.701111 203 76.275024 197.833069 70.322601 191.517883 C 64.370178 185.202698 59.5 179.475281 59.5 178.790283 C 59.5 178.105286 65.339447 172.688171 72.476593 166.75238 C 80.386658 160.173645 86.015381 156.175659 86.893127 156.512512 C 87.68512 156.816406 94.783142 161.352966 102.666534 166.59375 C 110.549957 171.834534 117 176.509705 117 176.983032 C 117 177.45636 109.488586 183.503784 100.307953 190.421814 C 91.12735 197.339783 83.059998 203 82.380554 203 Z M 146.967773 183.638123 C 146.160492 183.722351 138.299988 178.932983 129.5 172.995056 C 120.700012 167.05719 113.5 161.725037 113.5 161.145874 C 113.5 160.566711 122.950012 154.133545 134.5 146.850037 C 146.049988 139.566467 161.251404 130.034485 168.280914 125.667847 C 175.310425 121.301208 181.273529 117.940186 181.532288 118.198975 C 181.791016 118.457703 181.102295 122.190063 180.00177 126.493103 C 178.901215 130.796204 176.520874 137.739868 174.712097 141.923584 C 172.90329 146.1073 168.862549 153.798462 165.732635 159.015137 C 162.602722 164.231812 157.43045 171.871643 154.238708 175.992493 C 151.046967 180.113403 147.775055 183.553894 146.967773 183.638123 Z M 54.585724 171.605469 C 53.694061 171.947632 51.210907 169.1203 47.485016 163.52063 C 44.33374 158.784546 39.839233 150.992432 37.497223 146.204834 C 35.155212 141.417175 32.042511 133.708191 30.580139 129.07373 C 29.117737 124.43927 28.051453 120.065308 28.210632 119.35376 C 28.387329 118.563782 37.845673 124.111511 52.5 133.600403 C 65.700012 142.147583 77.083496 149.708679 77.796661 150.402771 C 78.850128 151.42804 76.923737 153.485291 67.525085 161.372009 C 61.162567 166.71106 55.339844 171.316101 54.585724 171.605469 Z"/>
    <path id="path2" fill="#d1a03d" fill-rule="evenodd" stroke="none" d="M 103.65686 153.710938 C 103.020599 153.826904 96.085327 149.776917 88.245209 144.710938 C 80.40506 139.644897 63.192566 128.432373 49.995209 119.794128 C 26 104.088318 26 104.088318 26 99.502014 C 26 96.979492 26.714539 91.447144 27.58786 87.207825 C 28.461182 82.968506 30.460632 76.475464 32.031067 72.778809 C 33.601501 69.082092 36.655609 63.452271 38.817993 60.268005 C 40.980377 57.08374 45.8479 51.558289 49.634705 47.989258 C 53.421509 44.420166 59.712372 39.606323 63.61441 37.291748 C 67.516479 34.977234 74.037018 31.978943 78.104523 30.628967 C 82.172028 29.278931 89.01181 27.619507 93.303986 26.941284 C 98.01474 26.19696 104.55484 25.957275 109.803986 26.336609 C 114.586792 26.68219 121.794464 27.883301 125.820984 29.005676 C 129.847534 30.128052 136.147552 32.562012 139.820984 34.41449 C 143.494446 36.266907 149.200012 39.774597 152.5 42.20929 C 155.799988 44.643982 161.274811 49.66687 164.66626 53.371277 C 168.057709 57.075623 172.690826 63.678345 174.962067 68.044006 C 177.233307 72.409607 179.993439 79.547791 181.095703 83.906616 C 182.350983 88.870605 182.987732 94.1922 182.799896 98.149231 C 182.5 104.466675 182.5 104.466675 158.633942 119.549805 C 145.507599 127.84552 128.028198 138.877991 119.790802 144.066467 C 111.553406 149.254883 104.293121 153.59491 103.65686 153.710938 Z M 105 122.610168 C 105.825012 122.399353 107.299988 121.897888 108.277771 121.495789 C 109.255554 121.093689 110.493073 119.947205 111.027771 118.94812 C 111.5625 117.948975 112 115.836731 112 114.254272 C 112 112.671875 111.082458 110.392273 109.96106 109.188538 C 108.697998 107.832825 106.724701 107 104.775482 107 C 102.921112 107 100.678436 107.892944 99.314453 109.174316 C 97.845551 110.55426 97.011627 112.47229 97.031799 114.424316 C 97.049286 116.115967 97.611786 118.207642 98.281799 119.072571 C 98.951813 119.9375 100.399994 121.173523 101.5 121.819275 C 102.600006 122.465088 104.174988 122.820923 105 122.610168 Z M 91.616638 99 C 101 99 101 99 101 89 C 101 79 101 79 91.616638 79 C 82.731049 79 82.201263 79.119385 81.63028 81.25 C 81.298645 82.487488 81.027313 85.974976 81.027313 89 C 81.027313 92.025024 81.298645 95.512512 81.63028 96.75 C 82.201263 98.880615 82.731049 99 91.616638 99 Z M 127.072418 99 C 126.5 79.5 126.5 79.5 117 79.5 C 107.5 79.5 107.5 79.5 107.213776 89.25 L 106.927582 99 L 117 99 L 127.072418 99 Z M 91.666656 74 C 101 74 101 74 101 64 C 101 54 101 54 91.616638 54 C 82.731049 54 82.201263 54.119385 81.63028 56.25 C 81.298645 57.487488 81.021179 61.6875 81.013641 65.583313 C 81.006134 69.479187 81.299988 72.966675 81.666656 73.333313 C 82.033325 73.700012 86.533325 74 91.666656 74 Z M 117.451538 73.784851 C 126.5 73.5 126.5 73.5 126.5 64 C 126.5 54.5 126.5 54.5 116.75 54.213806 C 107 53.927551 107 53.927551 107 63.297119 C 107 68.450378 107.315674 72.982361 107.701538 73.368164 C 108.087372 73.754028 112.474854 73.941528 117.451538 73.784851 Z"/>
    <path id="path3" fill="#d09c35" fill-rule="evenodd" stroke="none" d="M 108.344757 251.08551 C 105.189514 253.076416 105.189514 253.076416 96.844757 247.418762 C 92.255127 244.307068 84.225006 238.371399 79 234.228394 C 73.774994 230.085388 63.625122 220.801636 56.444672 213.597839 C 49.264252 206.394043 40.754913 197.171509 37.535065 193.103333 C 34.315186 189.035156 28.786346 181.385132 25.248718 176.103333 C 21.711121 170.821472 16.372314 161.549988 13.384705 155.5 C 10.397125 149.450012 6.656555 140.450012 5.072327 135.5 C 3.488129 130.549988 1.634979 123.125 0.954193 119 C 0.16156 114.197144 -0.102051 106.105713 0.221191 96.5 C 0.651031 83.724915 1.134583 80.239197 3.481171 73 C 4.996552 68.325012 7.819275 61.349976 9.753906 57.5 C 11.688568 53.650024 14.957886 48.025024 17.019135 45 C 19.080353 41.974976 23.558838 36.46283 26.971283 32.750793 C 30.383759 29.038696 37.025848 23.112 41.731506 19.580383 C 46.612854 15.91687 54.315826 11.385437 59.667786 9.028992 C 64.827118 6.757385 72.885223 3.909058 77.574707 2.699402 C 84.914917 0.805969 88.771912 0.5 105.300507 0.5 C 124.348267 0.5 124.582977 0.526611 135 3.864502 C 140.774994 5.714966 148.649994 8.813538 152.5 10.750183 C 156.350006 12.68689 162.200012 16.095825 165.5 18.325684 C 168.799988 20.555542 174.13623 24.881958 177.358307 27.939941 C 180.580383 30.997986 185.347351 36.200012 187.951538 39.5 C 190.555756 42.799988 194.556824 48.675842 196.842834 52.557495 C 199.128815 56.439087 202.349274 63.314331 203.99942 67.835754 C 205.649536 72.357178 207.674713 79.927795 208.499817 84.659241 C 209.324921 89.390747 210 97.194092 210 102 C 210 106.805908 209.335236 114.550049 208.522736 119.209229 C 207.710266 123.868408 205.67395 131.877563 203.997589 137.007385 C 202.321259 142.137146 198.737885 150.9198 196.034576 156.524353 C 193.331238 162.128906 187.8703 171.573486 183.899109 177.512268 C 179.927917 183.45105 173.451233 192.177795 169.50647 196.905029 C 165.561676 201.632263 159.221466 208.750183 155.417053 212.722595 C 151.612671 216.695068 144.163635 223.691956 138.863617 228.271362 C 133.563629 232.850708 125.238617 239.409302 120.363617 242.846069 C 115.488617 246.282776 110.080139 249.99054 108.344757 251.08551 Z M 105.870331 236 C 106.233398 236 111.473602 232.296753 117.515228 227.77063 C 123.556854 223.244446 135.059174 213.006958 143.075958 205.02063 C 151.092743 197.034302 161.274994 185.632202 165.703217 179.682678 C 170.131409 173.733154 176.260895 164.283142 179.324219 158.682678 C 182.387573 153.082214 186.441345 144.450012 188.33255 139.5 C 190.223785 134.549988 192.610138 126.900024 193.635559 122.5 C 194.928711 116.951355 195.5 110.6698 195.5 102 C 195.5 92.130127 195.01947 87.711487 193.216217 81 C 191.960114 76.325012 189.153992 68.896057 186.980347 64.491211 C 184.806702 60.086365 180.176514 52.875916 176.69104 48.468079 C 173.205566 44.060181 167.406616 38.108582 163.804504 35.24231 C 160.202362 32.375977 154.385254 28.305969 150.877594 26.197754 C 147.369904 24.0896 142.024994 21.402893 139 20.227356 C 135.975006 19.051819 131.016296 17.393005 127.980652 16.541138 C 124.945007 15.689209 118.159912 14.585266 112.902679 14.08783 C 107.110962 13.539917 100.025024 13.549866 94.922028 14.113098 C 90.289917 14.62439 83.143677 15.957458 79.041534 17.0755 C 74.939362 18.193542 67.964355 20.881165 63.541534 23.047974 C 59.118683 25.214783 51.967926 29.74823 47.65094 33.122253 C 43.319244 36.507813 36.927216 42.892273 33.387054 47.369324 C 29.858887 51.831177 25.21405 58.861206 23.065155 62.991638 C 20.91629 67.12207 18.169556 74.101135 16.961304 78.500732 C 15.506866 83.796936 14.595734 90.604065 14.265045 98.645264 C 13.850464 108.725342 14.14212 112.551208 15.980255 121.145264 C 17.198364 126.840393 19.721832 135.289368 21.587982 139.920776 C 23.454132 144.552185 27.748932 153.102173 31.131958 158.920776 C 34.515015 164.739319 40.481018 173.775024 44.38974 179 C 48.298492 184.224976 56.447327 193.626282 62.498291 199.891785 C 68.549225 206.157288 77.100006 214.315613 81.5 218.021484 C 85.899994 221.727356 93.03479 227.288513 97.355103 230.3797 C 101.675385 233.470886 105.507233 236 105.870331 236 Z"/>
</svg>
